<svg id="Layer_1" data-name="Layer 1" xmlns="http://www.w3.org/2000/svg" viewBox="0 0 187 215"><defs><style>.cls-1{fill:#ee202e;}</style></defs><title>Artboard 1</title><path class="cls-1" d="M180,111.37S101.44,71.49,101.44,64.9c0-2,19.29-10,44.4-21.18S183,22.79,175.5,15.27c-4.59-4.59-10.52-.76-18-.76-6,0-3-7.65-15.43-7.65-8.75,0-19.54,6.21-22.73,6.21-4.35,0-1.8-5.79-9.14-5.79C84.6,7.27,74,30.42,53.07,30.42H38.2c-2.35,0-3.65.26-3.65-1.35s0-3,0-4.45c0-2.12,1.42-2.16,3.65-2.16H59.82c3.83,0,5-1.2,5-4.28V7.38c0-2.68-2.37-4.44-5-4.44h-45c-3.43,0-5.94,1.32-5.94,7.41v58.9c8.3,0,6-13.32,10.76-13.33,4.24,0,5.73,13.33,9.15,13.33s4.86-13.81,9.63-13.81c4.35,0,5.5,13.93,9.64,13.93h19c2.66,0,4.6.33,4.6,2.85,0,6-.48,11.56-.48,17.42,0,8.17-10.45-13.49-18.79-13.49-4.16,0-1.25,14.46-4.82,14.46-6.63,0-6.75-13.49-12.52-13.49-5.47,0-5.26,13-10.11,13-6,0-7.56-14.93-15.42-14.93-6.31,0-7.36,38.08-7.36,57.65s-.66,62.34,9.51,72.5c9.21,7.22,29.3,6.81,46,6.64,93.06,0,109.86-14.27,118.49-22.89,4.05-4.05,8.24-42.3,8.24-51.29C184.41,130.07,186.9,115,180,111.37Zm-13.49-93.5c1.28-.36,2.49-.67,3.85.48C170.4,29.05,117.14,54,97.66,54c-1.86-7.18,6.47-10.67,12-13.49s12.45-5.9,18.31-8.19C141.36,27.09,155.36,21,166.55,17.87ZM69.24,161.41c0-3.43,10.79-13.1,13.8-13.1,3.38,0,36.53-1.28,55.45-1.28,6.58,0,11.68,6,11.68,7.52C150.17,157.06,69.24,164.35,69.24,161.41Zm95.1,1.93c0,16.57-90.74,18.79-114.37,18.79-1.66,0,.63-2.46,1.45-3.37,2.06-2.28,5.39-5.39,7.57-7.57,3.56-3.56,26.69-3.23,51.09-4.93C137.74,164.34,164.34,161.82,164.34,163.34ZM88.51,141.18c-4,0,10.57-18.05,16.14-18.05,8.05,0,27,11.84,27,16.37C131.63,142.24,103.42,141.18,88.51,141.18Zm1.85-22.42c-3.21,0-9.67.75-11,.75-7,0-7.12,6.86-10.64,11.39s-8.89,8.38-8.89,4V116.14c0-2.49,1.68-3.56,4.52-3.56H90.73c3.1,0,5,.85,5,2.59S95.18,118.76,90.36,118.76ZM116.28,20c9.64-4.59,18.55-8.07,28.36-8.07,6.59,0,.79,7.06-8.92,11.24-20.78,9-35.49,15.41-39,15.41C96.7,29,109.34,23.3,116.28,20Zm-26.8-.69c5.93-3.39,20.72-10.64,20.72-7.11,0,4.54-5.69,7.91-9.63,10.48s-10.2,7.73-12,7.73H77.44C77.44,27.51,84.63,22.09,89.47,19.31ZM66.84,38.71a2.42,2.42,0,0,1,2.47-2.51H87c2.41,0,2.94.93,2.94,2.77v7.77a2.81,2.81,0,0,1-3.07,2.75c-4.61,0-13.07-.11-17.58-.11-1.71,0-2.47-1-2.47-1.64ZM19.14,98.8H71c4.93,0,8.51-1.94,8.51-9.19V67.79c0-4.79-2.35-5.68-6.08-5.68H55.24c-3,0-2.85-2-2.85-4.56V50.22c0-1.94-1-2.84-3.76-2.84H23.71c-3.08,0-4.57-1.64-4.57-3.5,0-7.19-.24-22.87-.24-29.94,0-3.12,1-4.33,2.17-4.33H56.78A1.62,1.62,0,0,1,58.11,11c0,.71,0,3.72,0,4.55a1.48,1.48,0,0,1-1.33,1.41l-26.62,0c-1.22,0-2.53,1.25-2.53,3.21V34.26c0,1.29,0,4.32,3,4.32h23c3,0,5.78.9,5.78,2.89,0,2.44.05,6.5,0,9.4-.06,3.51,1.8,4.33,2.86,4.33H85.91c1.83,0,3.54,1.78,3.65,4.4.19,4.76,0,32.15,0,38.71,0,7.11-3.29,9.15-7.72,9.15H19.14c-2.21,0-6.25-.22-6.25-4C12.89,98.84,15.43,98.8,19.14,98.8Zm35.6,16.74v25.89c0,3.71-.23,7.46-4.36,7.46s-3.82-5-3.87-7.46c-.15-10.32,0-20.93,0-25.89A1.77,1.77,0,0,1,48,113.72h5.75C54.22,113.72,54.74,114.13,54.74,115.54ZM40.4,154.19c0,6.1-3,7.22-5.58,7.22-1.73,0-6.22.54-6.22-7.22V116.72c0-2.43.79-3,2.11-3H38.6c1.72,0,1.77,2,1.8,3.1C40.72,127.89,40.4,143.09,40.4,154.19ZM13,191.94V114.82c0-.9.46-1.1,1.16-1.1h8c.75,0,.82.64.82,1.54v45.18c0,5.13-.36,19.21,2.51,19.21,3.93,0,52-54.85,64.44-54.85,5,0-17.73,23-23.6,28.91C57.93,162.14,22,201.2,17.43,201.2,14.91,201.2,13,196.39,13,191.94Zm79.08,8.37c-14.89.37-61.15,3.16-61.15,1.09,0-5,9.5-13,14.8-13,3,0,29.26-1.14,60.63-2.45,27.58-1.15,61.94-11.22,63.94-9.21C181,187.42,134.64,199.24,92.08,200.31Zm84.46-52.22c0,2.52-4.48,3.61-6.4,2.79-13.42-5.73-53.17-29.42-64.95-41.61a11.92,11.92,0,0,1-3.34-8.05c0-7.6-.45-12.5-.45-19.42,0-1.89,1.39-3.84,3.84-2.83,13.12,5.44,55.8,31.54,68.29,42.13,2.2,1.87,3,6.62,3,8.41C176.58,136.5,176.54,141.39,176.54,148.09Z"/><path class="cls-1" d="M86.49,41.26c0-2.31-16.77-5.18-16.77,3.53C69.72,46.72,86.49,49.22,86.49,41.26Z"/><path class="cls-1" d="M178.2,51.77c-2.68-2.68-17.43,1-17.43-.47s4.1-2.44,3.94-6.46c0-.45-.82-1-1.44-1C154,43.88,109.14,64,109.14,67.5c0,2.4,30.76,18,33.49,18,5.87,0,3.93-18.9-2.68-20.51-3.77-.92-5.68,1.44-5.68,4.58,0,.83.67,1.76,1.42,1.23.94-.66,3.2-1.71,3.2.37,0,2.41-2.78,3.35-4.24,3.35s-4.23-2.19-4.23-5.87c0-7.35,5.35-7.71,10.11-7.71,10.11,0,12.53,19.88,12.53,30.63,0,2.42,30.06,18,30.06,15.13,0-9.82-15.61-24.37-15.61-27.45,0-2.88,11.08-1.46,11.08-8.17,0-3.78-13-4.67-13-6.76C165.58,61.66,182.14,55.71,178.2,51.77Z"/><circle class="cls-1" cx="116.28" cy="100.29" r="9.5"/><circle class="cls-1" cx="140.33" cy="117.64" r="9.5"/><circle class="cls-1" cx="162.07" cy="132.67" r="9.5"/></svg>