<svg id="Layer_1" data-name="Layer 1" xmlns="http://www.w3.org/2000/svg" viewBox="0 0 426 38"><defs><style>.cls-1{fill:#ee202e;}</style></defs><title>Artboard 1</title><path class="cls-1" d="M13.78,11.33V31.71h-6V11.33H0V5.82H21.55v5.51Z"/><path class="cls-1" d="M27,31.71V5.82H43.37v5.51H33V16h9.47v5.23H33v5.05H43.37v5.47Z"/><path class="cls-1" d="M72.38,32.2l-15.61-14V31.71h-6V5.46l.81-.14L67,19.24V5.82h6V32.1Z"/><path class="cls-1" d="M96.78,31.71,94.84,27H85.9L84,31.71H77.85L90,5.6h.81L103,31.71ZM90.39,16.2l-2.58,6.22h5.12Z"/><path class="cls-1" d="M129.09,31.71,128.77,19l-7.17,9.08H121L113.72,19l-.25,12.72h-5.79l1.2-26.07.81-.07,11.73,14.8,11.45-14.8.81.07,1.24,26.07Z"/><path class="cls-1" d="M150.58,24c-.85,0-1.41,0-2.23-.07v7.74h-6V6.06a68.34,68.34,0,0,1,7.21-.42c7.49,0,11.52,4,11.52,9.22S157.43,24,150.58,24Zm0-12.79a16.93,16.93,0,0,0-2.23.14v7.38c.85,0,1.24.07,1.8.07,3.18,0,4.77-1.38,4.77-3.89C154.92,12.88,153.54,11.26,150.58,11.26Z"/><path class="cls-1" d="M180.82,31.71,178.88,27h-8.94L168,31.71h-6.11L174.07,5.6h.81l12.19,26.11ZM174.43,16.2l-2.58,6.22H177Z"/><path class="cls-1" d="M206.29,31.71,199.41,21.5c-.57,0-1.13.07-1.73.07-.85,0-2.08,0-2.93-.07V31.71h-2.83V6.06a45.22,45.22,0,0,1,6-.42c6.67,0,10,3.32,10,7.77a7.53,7.53,0,0,1-5.65,7.49l7.52,10.81Zm-8-23.53a18.34,18.34,0,0,0-3.57.28V19a29.08,29.08,0,0,0,3.15.18c4.84,0,6.92-2.22,6.92-5.58C204.81,10.55,202.55,8.18,198.31,8.18Z"/><path class="cls-1" d="M214.88,31.71V5.82H230V8.36H217.7V17.3h11.09v2.54H217.7v9.33H230v2.54Z"/><path class="cls-1" d="M248.82,32.13c-8,0-13.74-5.58-13.74-13.35S241,5.39,248.82,5.39a16.66,16.66,0,0,1,8.55,2.47l-1.17,2.4A16.45,16.45,0,0,0,248.57,8c-6.54,0-10.42,4.63-10.42,10.74s4.13,10.7,10.67,10.7a16.43,16.43,0,0,0,7.63-2.22l.92,2.4A16.66,16.66,0,0,1,248.82,32.13Z"/><path class="cls-1" d="M273.54,32.13c-7,0-12.79-5.58-12.79-13.35a13.1,13.1,0,0,1,13-13.39c7,0,12.79,5.62,12.79,13.39A13.08,13.08,0,0,1,273.54,32.13Zm.14-24.2c-5.76,0-9.86,4.74-9.86,10.85s4.1,10.84,9.86,10.84,9.82-4.73,9.82-10.84S279.41,7.93,273.69,7.93Z"/><path class="cls-1" d="M307.64,31.71,300.75,21.5c-.57,0-1.13.07-1.73.07-.85,0-2.08,0-2.93-.07V31.71h-2.83V6.06a45.22,45.22,0,0,1,6-.42c6.68,0,10,3.32,10,7.77a7.53,7.53,0,0,1-5.65,7.49l7.52,10.81Zm-8-23.53a18.33,18.33,0,0,0-3.57.28V19a29,29,0,0,0,3.14.18c4.84,0,6.92-2.22,6.92-5.58C306.16,10.55,303.89,8.18,299.66,8.18Z"/><path class="cls-1" d="M323.22,31.92a66,66,0,0,1-7-.43V6.06A52.93,52.93,0,0,1,323,5.64c9.71,0,14.8,6.25,14.8,12.89C337.77,25.49,332.93,31.92,323.22,31.92Zm0-23.88a26.58,26.58,0,0,0-4.17.28V29.2a24.89,24.89,0,0,0,4.52.28c7.63,0,11.13-4.8,11.13-11S330.74,8,323.22,8Z"/><path class="cls-1" d="M344.48,31.71V5.82h2.83V31.71Z"/><path class="cls-1" d="M374.77,32.2,358,12.07V31.71h-2.83V5.46l.56-.14,16.6,19.82V5.82h2.83V32.1Z"/><path class="cls-1" d="M405.08,18.89V29.09a15.18,15.18,0,0,1-9.47,3c-7.17,0-13.85-5.26-13.85-13.35A13.48,13.48,0,0,1,395.3,5.39,15.42,15.42,0,0,1,405,8.54l-1.48,2.22a14.27,14.27,0,0,0-8.16-2.83c-6.64,0-10.49,5.12-10.49,10.85a10.71,10.71,0,0,0,10.81,10.84,12,12,0,0,0,6.61-1.77V21.54h-6.85V18.89Z"/><path class="cls-1" d="M417.64,32.13a13.06,13.06,0,0,1-7.49-2.4l1.38-2.47a11.26,11.26,0,0,0,6.25,2.3c3.32,0,4.88-2.19,4.88-4.52s-.88-3.6-5.12-5.48c-4.49-2-6.15-4-6.15-7.1,0-3.74,3.18-7.06,7.91-7.06a10.39,10.39,0,0,1,5.76,1.77l-1.27,2.4A8.23,8.23,0,0,0,419.13,8c-3.25,0-4.91,2-4.91,4.34,0,1.8,1.24,3.25,4.42,4.7,5.4,2.44,6.92,4.24,6.92,7.7C425.56,28.92,422.13,32.13,417.64,32.13Z"/></svg>